# xmcd
#
# Track frame offsets:
#	150
#	17387
#	37440
#	47900
#	64183
#	80190
#	96435
#	111586
#	126538
#	137121
#
# Disc length: 1999 seconds
#
# Revision: 1
# Processed by: cddbd v1.5.2PL0 Copyright (c) Steve Scherf et al.
# Submitted via: audiograbber 1.83.01
#
DISCID=9e07cd0a
DTITLE=Becky Moonen - Becky Moonen
DYEAR=2001
DGENRE=Country
TTITLE0=Say It Anyway
TTITLE1=I'd Love You All Over Again
TTITLE2=Sunday Drivin'
TTITLE3=Twenty Three Days Till Paris
TTITLE4=Walk on Water
TTITLE5=Singin' All the Way to Memphis
TTITLE6=Small Town Dream
TTITLE7=Good
TTITLE8=Undivided Affection
TTITLE9=Why Cry
EXTD=
EXTT0=
EXTT1=
EXTT2=
EXTT3=
EXTT4=
EXTT5=
EXTT6=
EXTT7=
EXTT8=
EXTT9=
PLAYORDER=
